HIERARCHY
ROOT hip
{
  OFFSET 0 0 0
  CHANNELS 6 Xposition Yposition Zposition Zrotation Yrotation Xrotation
  JOINT abdomen
  {
    OFFSET 0 20.6881 -0.73152
    CHANNELS 3 Zrotation Xrotation Yrotation
    JOINT chest
    {
      OFFSET 0 11.7043 -0.48768
      CHANNELS 3 Zrotation Xrotation Yrotation
      JOINT neck
      {
        OFFSET 0 22.1894 -2.19456
        CHANNELS 3 Zrotation Xrotation Yrotation
        JOINT head
        {
          OFFSET -0.24384 7.07133 1.2192
          CHANNELS 3 Zrotation Xrotation Yrotation
          JOINT leftEye
          {
            OFFSET 4.14528 8.04674 8.04672
            CHANNELS 3 Zrotation Xrotation Yrotation
            End Site
            {
              OFFSET 1 0 0
            }
          }
          JOINT rightEye
          {
            OFFSET -3.6576 8.04674 8.04672
            CHANNELS 3 Zrotation Xrotation Yrotation
            End Site
            {
              OFFSET 1 0 0
            }
          }
        }
      }
      JOINT rCollar
      {
        OFFSET -2.68224 19.2634 -4.8768
        CHANNELS 3 Zrotation Xrotation Yrotation
        JOINT rShldr
        {
          OFFSET -8.77824 -1.95073 1.46304
          CHANNELS 3 Zrotation Xrotation Yrotation
          JOINT rForeArm
          {
            OFFSET -28.1742 -1.7115 0.48768
            CHANNELS 3 Zrotation Xrotation Yrotation
            JOINT rHand
            {
              OFFSET -22.5879 0.773209 7.07136
              CHANNELS 3 Zrotation Xrotation Yrotation
              JOINT rThumb1
              {
                OFFSET -1.2192 -0.487915 3.41376
                CHANNELS 3 Zrotation Xrotation Yrotation
                JOINT rThumb2
                {
                  OFFSET -3.37035 -0.52449 3.41376
                  CHANNELS 3 Zrotation Xrotation Yrotation
                  End Site
                  {
                    OFFSET -1.78271 -1.18214 1.43049
                  }
                }
              }
              JOINT rIndex1
              {
                OFFSET -7.75947 0.938293 5.60832
                CHANNELS 3 Zrotation Xrotation Yrotation
                JOINT rIndex2
                {
                  OFFSET -2.54057 -0.884171 1.56538
                  CHANNELS 3 Zrotation Xrotation Yrotation
                  End Site
                  {
                    OFFSET -1.62519 -0.234802 1.16502
                  }
                }
              }
              JOINT rMid1
              {
                OFFSET -8.24714 1.18213 3.41376
                CHANNELS 3 Zrotation Xrotation Yrotation
                JOINT rMid2
                {
                  OFFSET -3.10165 -0.590103 1.0647
                  CHANNELS 3 Zrotation Xrotation Yrotation
                  End Site
                  {
                    OFFSET -2.48547 -0.328903 0.83742
                  }
                }
              }
              JOINT rRing1
              {
                OFFSET -8.82822 0.546677 1.51678
                CHANNELS 3 Zrotation Xrotation Yrotation
                JOINT rRing2
                {
                  OFFSET -2.60934 -0.819778 -0.0198488
                  CHANNELS 3 Zrotation Xrotation Yrotation
                  End Site
                  {
                    OFFSET -2.33842 -0.294052 0.168128
                  }
                }
              }
              JOINT rPinky1
              {
                OFFSET -8.27202 -0.0477905 -0.4584
                CHANNELS 3 Zrotation Xrotation Yrotation
                JOINT rPinky2
                {
                  OFFSET -1.82734 -0.647385 -0.700984
                  CHANNELS 3 Zrotation Xrotation Yrotation
                  End Site
                  {
                    OFFSET -1.69225 -0.51767 -0.607171
                  }
                }
              }
            }
          }
        }
      }
      JOINT lCollar
      {
        OFFSET 2.68224 19.2634 -4.8768
        CHANNELS 3 Zrotation Xrotation Yrotation
        JOINT lShldr
        {
          OFFSET 8.77824 -1.95073 1.46304
          CHANNELS 3 Zrotation Xrotation Yrotation
          JOINT lForeArm
          {
            OFFSET 28.1742 -1.7115 0.48768
            CHANNELS 3 Zrotation Xrotation Yrotation
            JOINT lHand
            {
              OFFSET 22.5879 0.773209 7.07136
              CHANNELS 3 Zrotation Xrotation Yrotation
              JOINT lThumb1
              {
                OFFSET 1.2192 -0.487915 3.41376
                CHANNELS 3 Zrotation Xrotation Yrotation
                JOINT lThumb2
                {
                  OFFSET 3.37035 -0.52449 3.41376
                  CHANNELS 3 Zrotation Xrotation Yrotation
                  End Site
                  {
                    OFFSET 1.78271 -1.18214 1.43049
                  }
                }
              }
              JOINT lIndex1
              {
                OFFSET 7.75947 0.938293 5.60832
                CHANNELS 3 Zrotation Xrotation Yrotation
                JOINT lIndex2
                {
                  OFFSET 2.54057 -0.884171 1.56538
                  CHANNELS 3 Zrotation Xrotation Yrotation
                  End Site
                  {
                    OFFSET 1.62519 -0.234802 1.16502
                  }
                }
              }
              JOINT lMid1
              {
                OFFSET 8.24714 1.18213 3.41376
                CHANNELS 3 Zrotation Xrotation Yrotation
                JOINT lMid2
                {
                  OFFSET 3.10165 -0.590103 1.0647
                  CHANNELS 3 Zrotation Xrotation Yrotation
                  End Site
                  {
                    OFFSET 2.48547 -0.328903 0.83742
                  }
                }
              }
              JOINT lRing1
              {
                OFFSET 8.82822 0.546677 1.51678
                CHANNELS 3 Zrotation Xrotation Yrotation
                JOINT lRing2
                {
                  OFFSET 2.60934 -0.819778 -0.0198488
                  CHANNELS 3 Zrotation Xrotation Yrotation
                  End Site
                  {
                    OFFSET 2.33842 -0.294052 0.168128
                  }
                }
              }
              JOINT lPinky1
              {
                OFFSET 8.27202 -0.0477905 -0.4584
                CHANNELS 3 Zrotation Xrotation Yrotation
                JOINT lPinky2
                {
                  OFFSET 1.82734 -0.647385 -0.700984
                  CHANNELS 3 Zrotation Xrotation Yrotation
                  End Site
                  {
                    OFFSET 1.69225 -0.51767 -0.607171
                  }
                }
              }
            }
          }
        }
      }
    }
  }
  JOINT rButtock
  {
    OFFSET -8.77824 4.35084 1.2192
    CHANNELS 3 Zrotation Xrotation Yrotation
    JOINT rThigh
    {
      OFFSET 0 -1.70687 -2.19456
      CHANNELS 3 Zrotation Xrotation Yrotation
      JOINT rShin
      {
        OFFSET 0 -36.8199 0.73152
        CHANNELS 3 Zrotation Xrotation Yrotation
        JOINT rFoot
        {
          OFFSET 0.73152 -45.1104 -5.12064
          CHANNELS 3 Zrotation Xrotation Yrotation
          End Site
          {
            OFFSET -1.1221 -3.69964 12.103
          }
        }
      }
    }
  }
  JOINT lButtock
  {
    OFFSET 8.77824 4.35084 1.2192
    CHANNELS 3 Zrotation Xrotation Yrotation
    JOINT lThigh
    {
      OFFSET 0 -1.70687 -2.19456
      CHANNELS 3 Zrotation Xrotation Yrotation
      JOINT lShin
      {
        OFFSET 0 -36.8199 0.73152
        CHANNELS 3 Zrotation Xrotation Yrotation
        JOINT lFoot
        {
          OFFSET -0.73152 -45.1104 -5.12064
          CHANNELS 3 Zrotation Xrotation Yrotation
          End Site
          {
            OFFSET 1.1221 -3.69964 12.103
          }
        }
      }
    }
  }
}
MOTION
Frames:	8
Frame Time:	0.03333
25.878899999999998 57.9133 -27.519199999999998 -171.64599 18.67915 -168.37829 2.930507 15.184094 111.662698 -9.686868 0.363186 -97.739345 -14.151423 19.338102 -51.969336 38.034828 -13.746386 28.565929 0.000394 -0.0 -0.002239 0.000394 -0.0 -0.002239 -9.651852 34.836202 11.199032 106.408294 -43.052864 125.163472 29.566054 14.314457 32.421187 -22.641623 53.22975 9.462234 -0.544868 0.535825 0.086087 -6.290945 7.182181 5.657828 -151.353483 -17.158097 121.133631 -85.835695 56.808473 67.522751 -8.417878 20.880314 5.644643 -162.917258 -3.924138 143.24506 -145.108418 3.759499 179.68877 -23.775163 -71.729791 -44.703949 -25.538223 -38.086778 -24.599941 -52.061379 -53.117289 -52.882541 85.53783 68.181657 -88.688724 94.622794 2.554883 -100.34755 3.495454 11.525267 140.095141 -130.443793 -53.935713 -121.801327 -87.247569 -50.688922 -36.415793 58.697204 31.102946 -19.356053 46.207144 39.653229 -36.31869 10.99285 23.630792 -4.695101 167.373991 -28.008643 -145.269405 42.539436 58.275861 -36.563007 145.119758 0.26719 179.213599 -11.795055 26.401644 5.988911 -12.98878 44.34423 -10.761695 -1.39402 -0.823642 0.585004 0.001684 -0.000653 0.001684 -4.648884 -44.681911 82.851711 78.261833 -7.935648 -163.856073 -54.692057 -52.081722 21.911164 -0.001347 -0.000653 -0.000674 0.85417 -65.15986 177.580969 -178.7226 -73.759901 31.161272 179.316943 -29.268503 13.827866
26.893099999999997 57.8272 -29.6066 -170.808904 20.897383 -168.838806 5.996557 19.288434 0.0 0.902039 -12.614379 13.853842 5.926575 20.791691 84.796477 -40.361776 5.038034 -109.247286 -0.002293 0.0 -0.002618 -0.001872 -0.0 0.002097 4.240322 -44.742803 -8.646202 76.933332 -24.326221 47.533713 71.369358 -9.260953 7.455198 -144.607715 63.229649 121.156199 -93.743018 37.963448 53.548977 2.919506 -19.9235 25.269161 169.568347 -65.842806 109.954466 -46.103163 54.095241 36.010741 -39.289429 53.365344 32.879511 -42.045311 58.501317 36.276498 -70.379357 -72.130613 -87.2797 14.73384 1.768857 -4.299964 -145.523798 13.175009 -142.13113 34.87481 74.52326 -0.579737 159.219651 -48.028329 -170.416225 41.444579 15.313284 36.9758 3.588052 -14.115329 146.383683 -110.943387 -59.250289 -106.893749 5.433647 5.265002 -1.07751 153.840107 -62.140259 -115.073494 -12.214794 -21.785168 5.120702 149.123543 0.884792 -109.887137 89.835442 60.701466 -81.262587 88.542496 63.88316 -80.46556 145.066201 -3.224322 178.113815 150.384498 -33.830261 173.368111 -39.993782 85.641145 0.905992 10.541329 -24.168551 11.461435 179.988354 75.749222 0.007969 179.740741 32.421407 -179.202591 -66.53246 -63.858113 -150.112392 -139.062915 -27.80199 161.30291 -179.985913 75.748602 -0.009638 179.482806 7.89081 0.0 178.177048 68.079842 -22.553793 89.455327 52.417247 174.655093
27.8957 57.8167 -31.7258 -170.198143 23.760583 -169.137315 5.277325 15.357032 160.77233 -4.344204 7.292968 -146.546911 -3.466715 13.082437 16.115842 -8.655291 -30.467045 -41.790345 -0.001008 -0.0 0.001169 -0.001008 -0.0 0.001169 -158.417227 -29.366324 166.794052 -112.46704 -24.523355 -138.839947 52.22237 75.879421 -136.79384 179.100888 -3.499686 143.581095 -78.030909 38.688992 42.412534 -13.931968 -7.781603 30.162799 -90.225736 41.072821 75.796721 -171.820635 -22.831109 114.384727 0.047336 -0.138643 -0.026584 -170.090198 -25.712047 144.31485 -145.100742 -1.522559 -178.648708 12.047494 29.596368 -5.640978 26.854293 80.011825 10.216956 -138.600415 -13.52477 -134.646609 158.515036 -30.702235 -167.037985 -7.572792 63.341033 64.723373 18.548381 -65.667593 168.843413 -97.580324 -60.802552 -95.055471 -51.058583 -41.20474 -12.856615 113.244588 30.158271 -87.073344 77.667505 43.029754 -64.538469 165.855565 -12.661364 -114.050224 0.571072 1.648304 -0.322642 3.215794 17.370935 -3.298444 -0.004535 1.771004 -0.55578 -11.408411 -38.441776 4.657309 -4.593345 13.360565 -4.154621 -28.19697 75.269063 -6.194772 -0.001811 -0.001296 -0.000905 2.119123 -38.370259 1.34881 59.405665 76.145821 154.071572 73.534599 -48.535386 153.751418 179.979032 75.748336 0.014346 179.235469 1.83268 156.364633 115.128703 -68.411979 -22.043619 -144.952252 -9.407891 31.314908
28.8582 57.847 -33.8595 -169.789262 27.032422 -169.244049 5.564495 20.146609 -1.703637 1.357106 -13.05174 15.175866 0.145979 32.061273 168.057562 -11.258757 49.041517 177.480493 -0.000777 -0.0 0.002089 -0.000777 -0.0 0.002089 4.239332 -44.742754 -8.647782 43.344712 16.997579 43.684841 -177.555853 -10.833248 79.597577 -179.982401 -8.619109 143.326215 -168.698348 -6.378603 89.898464 -71.372513 1.165075 22.665429 -9.375729 13.535635 6.014247 15.967309 -8.675012 -1.40434 3.451307 -10.534541 -1.682567 -0.082815 9.312163 1.485549 -77.741628 72.902206 95.870265 5.152453 28.349254 -0.799089 -146.18498 15.331725 -142.712522 -155.515818 36.340748 -145.922577 29.827198 58.18454 -32.232582 18.572725 11.77127 -87.20984 165.856175 -85.321762 53.667661 16.809069 69.844486 -14.651664 176.597988 -14.213236 -89.691396 14.992742 -46.528628 -0.775016 108.427019 34.161786 -91.743849 172.943415 -26.169452 -115.434875 39.289235 53.365657 -32.878841 168.683948 -21.945174 -144.220557 145.113365 -0.356139 179.015637 -11.355875 15.711416 7.160589 6.260727 -14.051791 5.885377 8.896988 -24.686848 10.551616 -179.948182 75.750116 -0.042635 -176.268991 37.54708 173.892274 -47.687637 -70.129477 -147.330718 146.190206 71.910667 119.820377 0.000195 0.000266 0.000195 3.045705 -76.808101 -178.385506 -145.067872 -83.097216 101.696164 -139.562249 10.83767 47.465958
29.7725 57.922700000000006 -36.0012 -169.527999 30.42287 -169.189916 2.231857 15.843901 129.679634 -9.107478 3.269423 -116.796137 -10.016432 30.963359 -132.851663 33.569487 37.990792 107.794511 0.005251 0.0 1e-05 -0.000458 -0.0 0.000493 -158.468108 -30.055408 166.92036 -103.438829 -29.983948 -124.67425 -90.767643 -6.038819 -37.274877 50.869071 -76.826651 34.426154 -170.593606 -8.277854 89.948815 -168.782341 -7.137532 88.457967 -0.327652 0.530089 0.184905 122.793373 -61.302406 65.118871 6.909527 -21.623864 -2.810693 -83.30477 64.333576 75.196839 0.004705 0.959084 0.30161 -148.291894 -76.777717 -171.086986 6.22971 18.789271 5.573769 -3.845135 -14.385404 -5.313972 149.851011 22.601453 -154.913062 61.491543 1.433691 -8.401413 -96.53834 -45.782325 114.467888 -179.248473 40.479132 -157.794616 171.603384 -9.286248 -89.949975 -44.304705 -67.257142 -34.770112 -88.791159 -75.500356 -40.046912 159.772883 -21.134427 -115.590561 160.672667 -6.667672 -143.246145 163.777982 -6.246369 -143.113304 80.613002 72.800871 -98.881683 -4.909598 -24.237162 7.971947 149.54764 27.153658 145.546404 -73.166805 84.176983 35.320056 -179.810912 75.748609 -0.145737 -174.678658 42.140813 -7.903369 13.413499 81.12909 -158.186668 174.706879 -12.046151 -106.817946 179.961414 75.750383 0.031748 -176.292864 -1.702458 -88.591959 -95.515319 3.840959 -124.921317 -131.238659 -10.528756 141.536902
30.6616 58.076499999999996 -38.1435 -169.301116 33.684241 -169.068363 2.563421 18.964868 0.0 1.522572 -12.669322 11.288828 7.287644 25.169984 113.191365 -36.956905 20.92932 -116.546993 0.003565 0.0 0.000842 0.003229 -0.0 -0.00234 -9.651738 34.836133 11.199457 -116.188961 27.910731 89.096747 9.718501 2.730659 -122.706498 -170.805736 6.806386 141.067198 88.928597 -50.831396 37.599355 -90.05218 38.434091 51.238367 -151.353841 -17.157935 121.133765 -47.476335 55.174168 32.824546 -167.29715 -27.767601 145.260741 179.845996 -48.666344 140.921975 -145.121816 1.974737 -179.748254 11.24154 17.10643 -7.004597 -148.067995 21.784349 -144.329208 -85.202989 -52.010139 -84.400391 130.420022 54.549288 -134.287914 47.684514 -16.799845 -33.41147 -21.191219 26.139641 156.916147 -158.383441 -26.263563 -144.949199 -0.567707 -0.561514 0.084448 153.556873 -65.1608 -119.952803 83.732051 42.332147 -69.990434 9.857811 23.273904 -1.838149 -68.982784 -80.154415 -40.577036 42.433799 58.398051 -36.30068 -0.006267 1.771545 -0.555414 -8.427075 18.546763 -2.578338 -0.097394 0.25868 -0.090475 146.682901 9.545922 143.180599 -0.00025 1.8e-05 -6.3e-05 4.43961 -30.947948 8.585499 38.124424 63.042491 1.235787 -171.083903 10.442744 75.483102 -0.00025 1.8e-05 -6.3e-05 19.040437 -76.017878 18.605285 31.833371 76.697691 26.796056 67.016614 -65.504164 -44.335914
31.5708 58.3495 -40.2943 -169.026121 36.648444 -169.051624 0.581036 13.03593 177.425697 -1.864756 7.19792 -167.519757 -8.482706 14.420974 -19.82195 21.849364 -22.785096 18.542505 4.4e-05 0.0 0.004316 4.4e-05 0.0 0.004316 -13.744362 42.431249 15.570351 -26.862659 -2.01917 59.889042 -75.775839 -84.280158 22.111378 -7.558547 -15.072995 -4.585064 -99.393849 37.100317 57.492211 87.320425 -49.922939 40.380241 -108.427519 34.160764 91.742807 -0.588073 12.012476 -4.181784 -36.036569 51.722888 29.832633 -1.321942 13.06098 2.358207 -74.841561 72.961422 92.827823 5.870988 1.761161 -4.317625 39.998115 85.641186 -0.9118 -6.370625 -17.202435 -7.682264 -4.239014 -44.742721 8.648509 -71.664297 26.560526 -0.756391 10.919835 0.200094 -105.43205 4.135317 32.66793 -3.266591 95.361082 37.750379 -54.682452 74.442133 -3.030597 -55.317724 138.494076 4.895784 -114.863568 -130.816927 -68.777531 -76.25307 161.519036 -9.304469 -143.624483 -2.645859 1.631378 -0.586086 72.758108 -72.142989 89.772343 -14.611797 14.412906 2.750165 6.259888 -14.052043 5.88495 -36.983765 80.94295 0.184574 -179.995183 75.748547 -0.003963 -175.436078 47.098148 -0.0 7.184258 72.142794 -82.153007 -139.335339 -38.828684 -32.268586 0.00065 0.000346 -0.000836 25.710422 -74.380019 25.011484 2.506439 66.984688 -27.862344 49.283915 24.704315 -9.425578
32.5986 58.7405 -42.6033 -168.716438 39.268566 -169.362646 -0.767637 16.840675 -10.952119 3.14484 -10.75721 20.081749 -11.676975 17.494287 -45.672317 33.46911 -8.372529 46.434699 -0.002557 0.0 -0.006719 0.003588 0.0 0.000973 3.268937 -26.755877 -5.240969 -124.675849 -39.17711 149.919398 -179.455588 -1.298557 -68.702713 -11.02711 -8.687425 -3.852578 -2.608715 2.554494 0.456953 -103.651762 8.228161 94.763193 -148.886005 -12.610029 120.24432 12.067682 -2.694758 -10.120959 -57.866327 59.219168 50.524742 0.111801 9.334976 1.628432 0.000388 0.063709 0.020033 -156.533301 -27.665744 175.091623 -120.230633 -33.971082 -118.114837 -155.047399 38.687558 -146.703585 -0.1332 -0.807145 0.178623 -64.02692 1.191932 -49.609498 -1.639069 0.752235 -91.183681 8.713796 37.785475 -3.101833 169.319788 -7.000668 -89.922756 -116.132254 -60.353718 -84.500859 -49.215219 -66.04784 -7.056713 161.143686 -22.641402 -114.041984 167.374849 -28.008623 -145.268768 -167.241254 -63.969001 -132.44401 -0.005896 1.772471 -0.55579 0.787967 54.284503 -13.066421 -13.635208 46.898252 -11.158334 -38.199389 80.950247 2.456418 -0.002236 -0.000519 -0.002236 3.312786 -26.678388 -91.44859 -66.274274 0.61874 89.582375 -81.758414 14.162391 -10.575537 179.983422 75.74775 0.011343 -171.196806 2.223555 -0.0 22.926637 69.22941 125.300928 -116.393052 -0.041278 135.934072
